{"title":"Fantastic Mr Fox CAM IMAGINE NORARS","uid":5227234,"size":743672134,"categoryP":"video","categoryS":"movies","magnet":"?xt=urn:btih:0fa933bafd9ba1ff45851c80fe5af89b2e790d1b&amp;dn=Fantastic+Mr+Fox+CAM+IMAGINE+NORARS&amp;tr=udp%3A%2F%2Ftracker.openbittorrent.com%3A80&amp;tr=udp%3A%2F%2Fopen.demonii.com%3A1337&amp;tr=udp%3A%2F%2Ftracker.coppersurfer.tk%3A6969&amp;tr=udp%3A%2F%2Fexodus.desync.com%3A6969","seeders":0,"leechers":1,"uploader":"IwannaFan2","files":1,"time":1261174095,"description":"Ripper ...........: IMAGiNE                                        IMDB Rating.......:8.3/10                            \nVideo Codec.......: XVID                                         Release Date......:18/12/09\nAudio Codec.......:MP3                                           Theatre Date......:29/10/09\nAudio Bitrate.....:128                                              Runtime.......:1h 20mn\nSubtitles.........:NIL                                                 Language..........:ENGLISH\nResolution...... 576 x 304                                      IMDb URL..........:http://www.imdb.com/title/tt0432283/\n\n\nDETAILS:\n\nVideo\nID                               : 0\nFormat                           : MPEG-4 Visual\nFormat profile                   : Advanced Simple@L5\nFormat settings, BVOP            : Yes\nFormat settings, QPel            : No\nFormat settings, GMC             : No warppoints\nFormat settings, Matrix          : Default (MPEG)\nMuxing mode                      : Packed bitstream\nCodec ID                         : XVID\nCodec ID/Hint                    : XviD\nDuration                         : 1h 20mn\nBit rate                         : 1 091 Kbps\nWidth                            : 576 pixels\nHeight                           : 304 pixels\nDisplay aspect ratio             : 1.895\nFrame rate                       : 23.976 fps\nResolution                       : 24 bits\nColorimetry                      : 4:2:0\nScan type                        : Progressive\nBits/(Pixel*Frame)               : 0.260\nStream size                      : 630 MiB (89%)\nWriting library                  : XviD 1.2.1 (UTC 2008-12-04)\n\nAudio\nID                               : 1\nFormat                           : MPEG Audio\nFormat version                   : Version 1\nFormat profile                   : Layer 3\nCodec ID                         : 55\nCodec ID/Hint                    : MP3\nDuration                         : 1h 20mn\nBit rate mode                    : Constant\nBit rate                         : 128 Kbps\nChannel(s)                       : 2 channels\nSampling rate                    : 44.1 KHz\nResolution                       : 16 bits\nStream size                      : 73.9 MiB (10%)\nAlignment                        : Split accross interleaves\nInterleave, duration             : 42 ms (1.00 video frame)\nInterleave, preload duration     : 500 ms\n\n\nNOTES:\n\nIMAGiNE bringing you another release.....\nOk here we have just a plain re-encode of nDn'S Cam of Mr fox.......(Thanks)\nWell source isn't the greatest but audio is not too bad for cam .....hoping to get some line for this\nbut can't say 100% yet.\nJust tweaked the video a touch....made it sharper,brigther,altered RGB colours,used an HI Q Smoother aswell...\nOverall nothing special but watchable,better on small TVs though.","torrent":{"xt":"urn:btih:0fa933bafd9ba1ff45851c80fe5af89b2e790d1b","amp;dn":"Fantastic+Mr+Fox+CAM+IMAGINE+NORARS","amp;tr":["udp%3A%2F%2Ftracker.openbittorrent.com%3A80","udp%3A%2F%2Fopen.demonii.com%3A1337","udp%3A%2F%2Ftracker.coppersurfer.tk%3A6969","udp%3A%2F%2Fexodus.desync.com%3A6969"],"infoHash":"0fa933bafd9ba1ff45851c80fe5af89b2e790d1b","infoHashBuffer":{"type":"Buffer","data":[15,169,51,186,253,155,161,255,69,133,28,128,254,90,248,155,46,121,13,27]},"announce":[],"urlList":[]}}